<?xml version="1.0" encoding="utf-8"?>
<!-- Generator: Adobe Illustrator 22.0.0, SVG Export Plug-In . SVG Version: 6.00 Build 0)  -->
<svg version="1.1" id="图层_1" xmlns="http://www.w3.org/2000/svg" xmlns:xlink="http://www.w3.org/1999/xlink" x="0px" y="0px"
	 viewBox="0 0 88 88" style="enable-background:new 0 0 88 88;" xml:space="preserve">
<style type="text/css">
	.st0{fill:#3D365E;}
	.st1{fill:none;stroke:#C28E90;stroke-width:2;stroke-linecap:round;stroke-miterlimit:10;}
	.st2{fill:#C28E90;}
	.st3{opacity:0.2;fill:#3D365E;enable-background:new    ;}
</style>
<g>
	<path class="st0" d="M22.4,40l1.3,3.2c0.3,0.5,0.7,1,1.3,1.3c1,0.3,1.9,1,2.4,2.1s0.3,2.2-0.3,3.1c-0.3,0.5-0.4,1.3-0.1,1.8
		l1.3,3.2c0.7,1.9,2.8,2.7,4.7,2l30.7-12.4c1.9-0.7,2.7-2.8,2-4.7L60,25c-0.7-1.9-2.8-2.7-4.7-2l-31,12.4
		C22.4,36.1,21.6,38.2,22.4,40z"/>
	<line class="st1" x1="30.5" y1="37.1" x2="36.1" y2="51.1"/>
	<path class="st2" d="M44.8,32.6l-6.6,2.6c-0.4,0.2-0.8,0-0.9-0.4l0,0c-0.2-0.4,0-0.8,0.4-0.9l6.6-2.6c0.4-0.2,0.8,0,0.9,0.4l0,0
		C45.4,32,45.2,32.4,44.8,32.6z"/>
	<path class="st2" d="M43.3,36.3l-4,1.5c-0.4,0.2-0.8,0-0.9-0.4l0,0c-0.2-0.4,0-0.8,0.4-0.9l4-1.5c0.4-0.2,0.8,0,0.9,0.4l0,0
		C43.7,35.7,43.6,36.1,43.3,36.3z"/>
	<ellipse class="st3" cx="45.3" cy="64.2" rx="14.4" ry="1.2"/>
</g>
</svg>
