<?xml version="1.0" encoding="utf-8"?>
<!-- Generator: Adobe Illustrator 22.0.0, SVG Export Plug-In . SVG Version: 6.00 Build 0)  -->
<svg version="1.1" id="图层_1" xmlns="http://www.w3.org/2000/svg" xmlns:xlink="http://www.w3.org/1999/xlink" x="0px" y="0px"
	 viewBox="0 0 48 48" style="enable-background:new 0 0 48 48;" xml:space="preserve">
<style type="text/css">
	.st0{fill:#3D365E;}
</style>
<g>
	<g>
		<path class="st0" d="M43,4.5c1.1,0,2,0.9,2,1.9v27.7c0,1.1-0.9,1.9-2,1.9h-9.4c-1.5,0-2.9,0.7-3.9,1.8l-4.3,5.3l-4.3-5.3
			c-0.9-1.2-2.4-1.8-3.9-1.8H5c-1.1,0-2-0.9-2-1.9V6.4c0-1.1,0.9-1.9,2-1.9H43 M43,1.5H5c-2.8,0-5,2.2-5,4.9v27.7
			c0,2.7,2.3,4.9,5,4.9h12.3c0.6,0,1.2,0.3,1.5,0.7l4.7,5.8c0.5,0.6,1.2,0.9,2,0.9s1.5-0.3,2-0.9l4.7-5.8c0.4-0.5,0.9-0.7,1.5-0.7
			H43c2.8,0,5-2.2,5-4.9V6.4C48,3.7,45.8,1.5,43,1.5L43,1.5z"/>
	</g>
	<path class="st0" d="M20.5,15h-12C7.7,15,7,14.3,7,13.5v0C7,12.7,7.7,12,8.5,12h12c0.8,0,1.5,0.7,1.5,1.5v0
		C22,14.3,21.3,15,20.5,15z"/>
	<path class="st0" d="M15.5,21h-7C7.7,21,7,20.3,7,19.5v0C7,18.7,7.7,18,8.5,18h7c0.8,0,1.5,0.7,1.5,1.5v0C17,20.3,16.3,21,15.5,21z
		"/>
</g>
</svg>
