<?xml version="1.0" encoding="utf-8"?>
<!-- Generator: Adobe Illustrator 22.0.0, SVG Export Plug-In . SVG Version: 6.00 Build 0)  -->
<svg version="1.1" id="图层_1" xmlns="http://www.w3.org/2000/svg" xmlns:xlink="http://www.w3.org/1999/xlink" x="0px" y="0px"
	 viewBox="0 0 48 48" style="enable-background:new 0 0 48 48;" xml:space="preserve">
<style type="text/css">
	.st0{fill:#3D365E;}
</style>
<g>
	<g>
		<path class="st0" d="M43,4.5c1.1,0,2,0.9,2,2v35c0,1.1-0.9,2-2,2H5c-1.1,0-2-0.9-2-2v-35c0-1.1,0.9-2,2-2H43 M43,1.5H5
			c-2.8,0-5,2.2-5,5v35c0,2.8,2.2,5,5,5h38c2.8,0,5-2.2,5-5v-35C48,3.7,45.8,1.5,43,1.5L43,1.5z"/>
	</g>
	<g>
		<path class="st0" d="M45,19.5v9H28c-1.1,0-2-0.9-2-2v-5c0-1.1,0.9-2,2-2H45 M48,16.5H28c-2.8,0-5,2.2-5,5v5c0,2.8,2.2,5,5,5h20
			V16.5L48,16.5z"/>
	</g>
	<g>
		<path class="st0" d="M31,22c-1.1,0-2,0.9-2,2s0.9,2,2,2c1.1,0,2-0.9,2-2S32.1,22,31,22L31,22z"/>
	</g>
</g>
</svg>
