<?xml version="1.0" encoding="utf-8"?>
<!-- Generator: Adobe Illustrator 22.0.0, SVG Export Plug-In . SVG Version: 6.00 Build 0)  -->
<svg version="1.1" id="图层_1" xmlns="http://www.w3.org/2000/svg" xmlns:xlink="http://www.w3.org/1999/xlink" x="0px" y="0px"
	 viewBox="0 0 88 88" style="enable-background:new 0 0 88 88;" xml:space="preserve">
<style type="text/css">
	.st0{fill:#3D365E;}
	.st1{fill:#C28E90;}
	.st2{opacity:0.2;fill:#3D365E;}
</style>
<g>
	<path class="st0" d="M51.1,19.6H32.2c-2.2,0-3.9,1.7-3.9,3.9v33.1c0,2.2,1.7,3.9,3.9,3.9h23.6c2.2,0,3.9-1.7,3.9-3.9V28.3
		L51.1,19.6z"/>
	<path class="st1" d="M51.1,19.6v4.7c0,2.2,1.7,3.9,3.9,3.9h4.7L51.1,19.6z"/>
	<g>
		<path class="st1" d="M44,29.8c2.4,0,4.3,2,4.3,4.3s-2,4.3-4.3,4.3s-4.3-2-4.3-4.3S41.6,29.8,44,29.8 M44,28.3
			c-3.2,0-5.9,2.7-5.9,5.9s2.7,5.9,5.9,5.9s5.9-2.7,5.9-5.9S47.2,28.3,44,28.3L44,28.3z"/>
	</g>
	<g>
		<path class="st1" d="M44.6,31.3c-0.5,0-0.8,0.3-0.8,0.8v2.4c0,0.2-0.1,0.4-0.2,0.6L43,35.7c-0.3,0.3-0.3,0.8,0,1.1
			c0.2,0.2,0.4,0.2,0.6,0.2c0.2,0,0.4-0.1,0.6-0.2l1.1-1.1c0.2-0.2,0.2-0.3,0.2-0.6V34v-0.3v-1.6C45.3,31.7,45,31.3,44.6,31.3
			L44.6,31.3z"/>
	</g>
	<g>
		<path class="st1" d="M49.5,44.8h-11c-0.4,0-0.8,0.4-0.8,0.8s0.4,0.8,0.8,0.8h11c0.4,0,0.8-0.4,0.8-0.8S49.9,44.8,49.5,44.8
			L49.5,44.8z"/>
	</g>
	<g>
		<path class="st1" d="M49.5,48.7h-11c-0.4,0-0.8,0.4-0.8,0.8s0.4,0.8,0.8,0.8h11c0.4,0,0.8-0.4,0.8-0.8S49.9,48.7,49.5,48.7
			L49.5,48.7z"/>
	</g>
	<ellipse class="st2" cx="43.6" cy="67.2" rx="15.4" ry="1.2"/>
</g>
</svg>
