<?xml version="1.0" encoding="utf-8"?>
<!-- Generator: Adobe Illustrator 22.0.0, SVG Export Plug-In . SVG Version: 6.00 Build 0)  -->
<svg version="1.1" id="图层_1" xmlns="http://www.w3.org/2000/svg" xmlns:xlink="http://www.w3.org/1999/xlink" x="0px" y="0px"
	 viewBox="0 0 48 48" style="enable-background:new 0 0 48 48;" xml:space="preserve">
<style type="text/css">
	.st0{fill:#3D365E;}
</style>
<g>
	<g>
		<path class="st0" d="M43,4.5c1.1,0,2,0.9,2,2v35c0,1.1-0.9,2-2,2H5c-1.1,0-2-0.9-2-2v-35c0-1.1,0.9-2,2-2H43 M43,1.5H5
			c-2.8,0-5,2.2-5,5v35c0,2.8,2.2,5,5,5h38c2.8,0,5-2.2,5-5v-35C48,3.7,45.8,1.5,43,1.5L43,1.5z"/>
	</g>
	<g>
		<path class="st0" d="M29,4.5l0,15.3c-1.6-0.5-3.3-0.8-5-0.8c-1.7,0-3.4,0.3-5,0.8l0-15.3H29 M30.5,1.5h-13C16.7,1.5,16,2.2,16,3
			l0,18.5c0,1,0.8,1.8,1.8,1.8c0.2,0,0.5,0,0.7-0.1C20.2,22.4,22,22,24,22c2,0,3.8,0.4,5.5,1.1c0.2,0.1,0.5,0.1,0.7,0.1
			c0.9,0,1.8-0.8,1.8-1.8c0-5,0-14.8,0-18.5C32,2.2,31.3,1.5,30.5,1.5L30.5,1.5z"/>
	</g>
	<g>
		<rect x="2" y="13" class="st0" width="14" height="3"/>
	</g>
	<g>
		<path class="st0" d="M11.5,21h-4C6.7,21,6,20.3,6,19.5v0C6,18.7,6.7,18,7.5,18h4c0.8,0,1.5,0.7,1.5,1.5v0C13,20.3,12.3,21,11.5,21
			z"/>
	</g>
</g>
</svg>
