<?xml version="1.0" encoding="utf-8"?>
<!-- Generator: Adobe Illustrator 22.0.0, SVG Export Plug-In . SVG Version: 6.00 Build 0)  -->
<svg version="1.1" id="图层_1" xmlns="http://www.w3.org/2000/svg" xmlns:xlink="http://www.w3.org/1999/xlink" x="0px" y="0px"
	 viewBox="0 0 88 88" style="enable-background:new 0 0 88 88;" xml:space="preserve">
<style type="text/css">
	.st0{fill:#C28E90;}
	.st1{fill:#3D365E;}
	.st2{opacity:0.2;fill:#3D365E;}
</style>
<g>
	<path class="st0" d="M53.3,33.2l16.4,3.7c1.5,0.4,2.4,1.8,2.1,3.4L70,47.9c-0.4,1.5-1.8,2.4-3.4,2.1l-1.9-0.5c-0.1,0-0.2,0-0.3,0.1
		l-0.8,1.8c-0.1,0.3-0.6,0.4-0.8,0.1l-2-2.7c-0.1-0.2-0.3-0.3-0.5-0.3l-10.1-2.2c-1.5-0.4-2.4-1.8-2.1-3.4l1.7-7.6
		C50.2,33.7,51.8,32.8,53.3,33.2z"/>
	<circle class="st1" cx="65.5" cy="42.7" r="1.6"/>
	<circle class="st1" cx="59.4" cy="41.4" r="1.6"/>
	<circle class="st1" cx="53.4" cy="40" r="1.6"/>
	<path class="st1" d="M48.2,23.3l-28.3,6.1c-2.6,0.6-4.3,3.1-3.7,5.7L19,48.3c0.6,2.6,3.1,4.3,5.7,3.7l3.4-0.8
		c0.2,0,0.4,0.1,0.5,0.3l1.4,3.2c0.2,0.6,1,0.7,1.4,0.2l3.5-4.7c0.2-0.3,0.5-0.5,0.9-0.6L53,45.8c2.6-0.6,4.3-3.1,3.7-5.7l-2.8-13.2
		C53.3,24.5,50.8,22.8,48.2,23.3z"/>
	<circle class="st0" cx="27" cy="39.7" r="2.9"/>
	<circle class="st0" cx="37.4" cy="37.5" r="2.9"/>
	<circle class="st0" cx="47.8" cy="35.3" r="2.9"/>
	<ellipse class="st2" cx="33.5" cy="62.9" rx="12.1" ry="1.9"/>
	<ellipse class="st2" cx="62.3" cy="55.2" rx="7.1" ry="1.2"/>
</g>
</svg>
