<?xml version="1.0" encoding="utf-8"?>
<!-- Generator: Adobe Illustrator 22.0.0, SVG Export Plug-In . SVG Version: 6.00 Build 0)  -->
<svg version="1.1" id="图层_1" xmlns="http://www.w3.org/2000/svg" xmlns:xlink="http://www.w3.org/1999/xlink" x="0px" y="0px"
	 viewBox="0 0 52 48" style="enable-background:new 0 0 52 48;" xml:space="preserve">
<style type="text/css">
	.st0{fill:#3D365E;}
	.st1{fill:#FFFFFF;}
</style>
<g>
	<g>
		<path class="st0" d="M47,4.5c1.1,0,2,0.9,2,2v28c0,1.1-0.9,2-2,2H24v-30c0-1.1,0.9-2,2-2H47 M47,1.5H26c-2.8,0-5,2.2-5,5v33h26
			c2.8,0,5-2.2,5-5v-28C52,3.7,49.8,1.5,47,1.5L47,1.5z"/>
	</g>
	<g>
		<path class="st0" d="M21,15.5v21H4.1c-0.5,0-1.1-0.8-1.1-2v-7c0-0.6,0.2-1.1,0.5-1.5l8.4-10.1c0.2-0.2,0.4-0.3,0.7-0.3L21,15.5
			 M22.7,12.5H12.5c-1.1,0-2.2,0.5-3,1.4L1.2,24C0.4,25,0,26.2,0,27.5v7c0,2.8,1.9,5,4.1,5h18.6c0.7,0,1.3-0.6,1.3-1.4V13.9
			C24,13.1,23.4,12.5,22.7,12.5L22.7,12.5z"/>
	</g>
	<g>
		<circle class="st1" cx="37" cy="39.5" r="5.5"/>
		<path class="st0" d="M37,35.5c2.2,0,4,1.8,4,4s-1.8,4-4,4s-4-1.8-4-4S34.8,35.5,37,35.5 M37,32.5c-3.9,0-7,3.1-7,7s3.1,7,7,7
			s7-3.1,7-7S40.9,32.5,37,32.5L37,32.5z"/>
	</g>
	<g>
		<circle class="st1" cx="12" cy="39.5" r="5.5"/>
		<path class="st0" d="M12,35.5c2.2,0,4,1.8,4,4s-1.8,4-4,4s-4-1.8-4-4S9.8,35.5,12,35.5 M12,32.5c-3.9,0-7,3.1-7,7s3.1,7,7,7
			s7-3.1,7-7S15.9,32.5,12,32.5L12,32.5z"/>
	</g>
	<g>
		<path class="st1" d="M15.5,27.5h-5C9.7,27.5,9,26.8,9,26l0,0c0-0.8,0.7-1.5,1.5-1.5h5c0.8,0,1.5,0.7,1.5,1.5l0,0
			C17,26.8,16.3,27.5,15.5,27.5z"/>
		<path class="st0" d="M15.5,24.5h-5C9.7,24.5,9,25.2,9,26s0.7,1.5,1.5,1.5h5c0.8,0,1.5-0.7,1.5-1.5S16.3,24.5,15.5,24.5L15.5,24.5z
			"/>
	</g>
	<g>
		<path class="st1" d="M15.5,26v-5V26z"/>
		<path class="st0" d="M15.5,19.5c-0.8,0-1.5,0.7-1.5,1.5v5c0,0.8,0.7,1.5,1.5,1.5S17,26.8,17,26v-5C17,20.2,16.3,19.5,15.5,19.5
			L15.5,19.5z"/>
	</g>
</g>
</svg>
