<?xml version="1.0" encoding="utf-8"?>
<!-- Generator: Adobe Illustrator 22.0.0, SVG Export Plug-In . SVG Version: 6.00 Build 0)  -->
<svg version="1.1" id="图层_1" xmlns="http://www.w3.org/2000/svg" xmlns:xlink="http://www.w3.org/1999/xlink" x="0px" y="0px"
	 viewBox="0 0 31 29" style="enable-background:new 0 0 31 29;" xml:space="preserve">
<style type="text/css">
	.st0{fill:#3D365E;}
	.st1{fill:none;stroke:#3D365E;stroke-width:2;stroke-linecap:round;stroke-miterlimit:10;}
	.st2{fill-rule:evenodd;clip-rule:evenodd;fill:#D8B2B6;}
</style>
<g>
	<path class="st0" d="M28.5,10c0.2,0,0.3,0.1,0.4,0.2c0.1,0.1,0.1,0.2,0.1,0.4l-3,16c0,0.2-0.3,0.4-0.5,0.4H5.6
		c-0.2,0-0.4-0.2-0.5-0.4l-3-16c0-0.2,0-0.3,0.1-0.4C2.2,10.1,2.3,10,2.5,10H28.5 M28.5,8h-26C1,8-0.2,9.4,0.1,11l3,16
		c0.2,1.2,1.3,2,2.5,2h19.9c1.2,0,2.2-0.9,2.5-2l3-16C31.2,9.4,30,8,28.5,8L28.5,8z"/>
</g>
<g>
	<line class="st1" x1="15" y1="1" x2="7" y2="9"/>
</g>
<g>
	<line class="st1" x1="15" y1="1" x2="23" y2="9"/>
</g>
<g>
	<g>
		<path class="st2" d="M10.5,23.5L10.5,23.5c-0.6,0-1-0.4-1-1v-8c0-0.5,0.4-1,1-1h0c0.5,0,1,0.4,1,1v8
			C11.5,23.1,11.1,23.5,10.5,23.5z"/>
		<path class="st2" d="M20.5,23.5L20.5,23.5c-0.6,0-1-0.4-1-1v-8c0-0.5,0.4-1,1-1h0c0.5,0,1,0.4,1,1v8
			C21.5,23.1,21.1,23.5,20.5,23.5z"/>
	</g>
</g>
</svg>
