<?xml version="1.0" encoding="utf-8"?>
<!-- Generator: Adobe Illustrator 22.0.0, SVG Export Plug-In . SVG Version: 6.00 Build 0)  -->
<svg version="1.1" id="图层_1" xmlns="http://www.w3.org/2000/svg" xmlns:xlink="http://www.w3.org/1999/xlink" x="0px" y="0px"
	 viewBox="0 0 31 29" style="enable-background:new 0 0 31 29;" xml:space="preserve">
<style type="text/css">
	.st0{fill:none;stroke:#423C62;stroke-width:2;stroke-miterlimit:10;}
	.st1{fill:none;stroke:#D8B2B6;stroke-width:2;stroke-linecap:round;stroke-miterlimit:10;}
	.st2{fill:none;stroke:#423C62;stroke-width:2;stroke-linecap:round;stroke-miterlimit:10;}
	.st3{fill:#D8B2B6;}
</style>
<path class="st0" d="M5.2,6.5H22c0.9,0,1.7,1,1.4,2l-1.2,6.6c-0.3,0.9-1,1.5-2,1.5H6.7"/>
<circle class="st1" cx="21.1" cy="26.5" r="1.5"/>
<circle class="st1" cx="10.9" cy="26.5" r="1.5"/>
<path class="st2" d="M1,3.1h2.4c0.2,0,0.5,0.2,0.5,0.4l4.7,17.8c0.1,0.2,0.3,0.4,0.5,0.4h13.6"/>
<path class="st3" d="M25.8,6.8V1.3C25.8,0.6,26.4,0,27,0l0,0c0.6,0,1.3,0.5,1.3,1.3v5.5C28.3,7.4,27.8,8,27,8l0,0
	C26.4,8,25.8,7.4,25.8,6.8z"/>
<path class="st3" d="M29.8,5.1h-5.5C23.6,5.1,23,4.7,23,4l0,0c0-0.6,0.5-1.1,1.3-1.1h5.5C30.4,2.9,31,3.3,31,4l0,0
	C31,4.6,30.5,5.1,29.8,5.1z"/>
</svg>
