<?xml version="1.0" encoding="utf-8"?>
<!-- Generator: Adobe Illustrator 22.0.0, SVG Export Plug-In . SVG Version: 6.00 Build 0)  -->
<svg version="1.1" id="图层_1" xmlns="http://www.w3.org/2000/svg" xmlns:xlink="http://www.w3.org/1999/xlink" x="0px" y="0px"
	 viewBox="0 0 88 88" style="enable-background:new 0 0 88 88;" xml:space="preserve">
<style type="text/css">
	.st0{fill:#D8B2B6;stroke:#D8B2B6;stroke-width:0.25;stroke-miterlimit:10;}
	.st1{fill:none;stroke:#423C62;stroke-width:3;stroke-miterlimit:10;}
	.st2{fill:none;stroke:#423C62;stroke-width:3;stroke-linecap:round;stroke-miterlimit:10;}
	.st3{fill:#423C62;}
</style>
<polygon class="st0" points="57.2,48.2 30.5,48.4 26.6,27.5 63.6,28.3 "/>
<path class="st1" d="M26.6,27.5h33.8c1.4,0,2.4,1.2,2.2,2.5l-3.7,13.2c-0.9,3.1-3.7,5.2-6.8,5.2H30.5"/>
<circle class="st2" cx="35.6" cy="62.1" r="2.6"/>
<circle class="st2" cx="55.1" cy="62.1" r="2.6"/>
<path class="st3" d="M60.2,37.3h-7.3c-0.7,0-1.4-0.6-1.4-1.4l0,0c0-0.7,0.6-1.4,1.4-1.4h7.3c0.7,0,1.4,0.6,1.4,1.4l0,0
	C61.6,36.7,61,37.3,60.2,37.3z"/>
<path class="st3" d="M58,43.5h-9.2c-0.7,0-1.4-0.6-1.4-1.4l0,0c0-0.7,0.6-1.4,1.4-1.4H58c0.7,0,1.4,0.6,1.4,1.4l0,0
	C59.4,42.9,58.8,43.5,58,43.5z"/>
<path class="st2" d="M19.3,23.9h4.3c0.7,0,1.3,0.4,1.5,1.1l5.4,27.4c0.4,1.3,1.6,2.1,2.9,2.1h24.5"/>
</svg>
