<?xml version="1.0" encoding="utf-8"?>
<!-- Generator: Adobe Illustrator 22.0.0, SVG Export Plug-In . SVG Version: 6.00 Build 0)  -->
<svg version="1.1" id="图层_1" xmlns="http://www.w3.org/2000/svg" xmlns:xlink="http://www.w3.org/1999/xlink" x="0px" y="0px"
	 viewBox="0 0 88 88" style="enable-background:new 0 0 88 88;" xml:space="preserve">
<style type="text/css">
	.st0{fill:#D8B2B6;stroke:#423C62;stroke-width:3;stroke-miterlimit:10;}
	.st1{fill:#3D365E;}
	.st2{fill:none;stroke:#3D365E;stroke-width:3;stroke-linecap:round;stroke-miterlimit:10;}
</style>
<g>
	<g>
		<path class="st0" d="M60.5,43.7C60.2,53.2,52.8,59,44,59s-16.2-5.8-16.5-15.3C27.1,34.6,26.4,29,44,29S60.9,34.6,60.5,43.7z"/>
		<g>
			<path class="st1" d="M36.6,42.8L36.6,42.8c-0.8,0-1.5-0.7-1.5-1.5v-2.1c0-0.8,0.7-1.5,1.5-1.5h0c0.8,0,1.5,0.7,1.5,1.5v2.1
				C38.1,42.1,37.5,42.8,36.6,42.8z"/>
			<path class="st1" d="M51.4,42.8L51.4,42.8c-0.8,0-1.5-0.7-1.5-1.5v-2.1c0-0.8,0.7-1.5,1.5-1.5h0c0.8,0,1.5,0.7,1.5,1.5v2.1
				C52.9,42.1,52.2,42.8,51.4,42.8z"/>
		</g>
		<path class="st2" d="M49.2,49.9c-1.2,1.6-3.1,2.6-5.2,2.6c-2.1,0-4-1-5.2-2.6"/>
	</g>
	<g>
		<path class="st2" d="M19,29.5v-6.8c0-2,1.6-3.7,3.7-3.7h6.8"/>
		<path class="st2" d="M19,58.5v6.8c0,2,1.6,3.7,3.7,3.7h6.8"/>
		<path class="st2" d="M69,29.5v-6.8c0-2-1.6-3.7-3.7-3.7h-6.8"/>
		<path class="st2" d="M69,58.5v6.8c0,2-1.6,3.7-3.7,3.7h-6.8"/>
	</g>
</g>
</svg>
