<?xml version="1.0" encoding="utf-8"?>
<!-- Generator: Adobe Illustrator 22.0.0, SVG Export Plug-In . SVG Version: 6.00 Build 0)  -->
<svg version="1.1" id="图层_1" xmlns="http://www.w3.org/2000/svg" xmlns:xlink="http://www.w3.org/1999/xlink" x="0px" y="0px"
	 viewBox="0 0 28 30" style="enable-background:new 0 0 28 30;" xml:space="preserve">
<style type="text/css">
	.st0{fill:#423C62;}
	.st1{fill:none;stroke:#423C62;stroke-width:1.2;stroke-linecap:round;stroke-miterlimit:10;}
	.st2{fill:#D8B2B6;}
</style>
<g>
	<path class="st0" d="M14,19.2c5.3,0,9.8,3.8,10.7,9c0,0.2-0.1,0.3-0.1,0.4c-0.1,0.1-0.2,0.2-0.4,0.2l-20.3,0
		c-0.2,0-0.3-0.1-0.4-0.2c-0.1-0.1-0.1-0.2-0.1-0.4C4.2,23,8.7,19.2,14,19.2 M14,18C8.1,18,3.1,22.3,2.2,28c-0.2,1,0.6,2,1.7,2
		c4.5,0,15.8,0,20.3,0c1.1,0,1.9-1,1.7-2C24.9,22.3,19.9,18,14,18L14,18z"/>
</g>
<g>
	<line class="st1" x1="7.7" y1="29" x2="8.3" y2="25"/>
</g>
<g>
	<line class="st1" x1="20.3" y1="29" x2="19.7" y2="25"/>
</g>
<g>
	<path class="st2" d="M14,18.4c-4.9,0-8.9-4-8.9-8.9s4-8.9,8.9-8.9c4.9,0,8.9,4,8.9,8.9S18.9,18.4,14,18.4z"/>
	<path class="st0" d="M14,1.2c4.6,0,8.3,3.7,8.3,8.3s-3.7,8.3-8.3,8.3s-8.3-3.7-8.3-8.3S9.4,1.2,14,1.2 M14,0C8.8,0,4.5,4.3,4.5,9.5
		S8.8,19,14,19s9.5-4.3,9.5-9.5S19.2,0,14,0L14,0z"/>
</g>
</svg>
