<?xml version="1.0" encoding="utf-8"?>
<!-- Generator: Adobe Illustrator 22.0.0, SVG Export Plug-In . SVG Version: 6.00 Build 0)  -->
<svg version="1.1" id="图层_1" xmlns="http://www.w3.org/2000/svg" xmlns:xlink="http://www.w3.org/1999/xlink" x="0px" y="0px"
	 viewBox="0 0 39 33" style="enable-background:new 0 0 39 33;" xml:space="preserve">
<style type="text/css">
	.st0{fill:none;stroke:#C28E90;stroke-width:3;stroke-miterlimit:10;}
	.st1{fill:#C28E90;}
</style>
<path class="st0" d="M33.8,6.4h-5c-0.3,0-0.6-0.1-0.8-0.3l-3.4-3.5C23.9,1.9,23,1.5,22,1.5h-5.2c-1,0-1.9,0.4-2.6,1.1L10.9,6
	c-0.2,0.2-0.5,0.3-0.8,0.3h-5c-2,0-3.7,1.7-3.7,3.7v17.6c0,2.1,1.6,3.7,3.7,3.7h28.7c2,0,3.7-1.7,3.7-3.7V10.1
	C37.5,8.1,35.9,6.4,33.8,6.4z"/>
<g>
	<path class="st1" d="M19.5,13c3,0,5.5,2.5,5.5,5.5S22.5,24,19.5,24S14,21.5,14,18.5S16.5,13,19.5,13 M19.5,10
		c-4.7,0-8.5,3.8-8.5,8.5s3.8,8.5,8.5,8.5s8.5-3.8,8.5-8.5S24.2,10,19.5,10L19.5,10z"/>
</g>
</svg>
