<?xml version="1.0" encoding="utf-8"?>
<!-- Generator: Adobe Illustrator 22.0.0, SVG Export Plug-In . SVG Version: 6.00 Build 0)  -->
<svg version="1.1" id="图层_1" xmlns="http://www.w3.org/2000/svg" xmlns:xlink="http://www.w3.org/1999/xlink" x="0px" y="0px"
	 viewBox="0 0 30 40" style="enable-background:new 0 0 30 40;" xml:space="preserve">
<style type="text/css">
	.st0{fill:#3D365E;}
</style>
<g>
	<path class="st0" d="M15,3c4.4,0,8,3.6,8,8c0,2.1-0.8,4.1-2.3,5.6L19.4,18l0.7,1.8l6.8,17.1L16,33l-1-0.4L14,33L3.1,36.8l6.8-17.1
		l0.7-1.8l-1.4-1.4C7.8,15.1,7,13.1,7,11C7,6.6,10.6,3,15,3 M15,0C8.9,0,4,4.9,4,11c0,3,1.2,5.7,3.1,7.7l-7,17.5
		C-0.5,38.1,1,40,2.7,40c0.3,0,0.6,0,0.9-0.2l11.4-4l11.4,4C26.7,40,27,40,27.3,40c1.8,0,3.2-1.9,2.6-3.8l-7-17.5
		c1.9-2,3.1-4.7,3.1-7.7C26,4.9,21.1,0,15,0L15,0z"/>
</g>
<g>
	<path class="st0" d="M15,3c4.4,0,8,3.6,8,8s-3.6,8-8,8s-8-3.6-8-8S10.6,3,15,3 M15,0C8.9,0,4,4.9,4,11s4.9,11,11,11s11-4.9,11-11
		S21.1,0,15,0L15,0z"/>
</g>
</svg>
