<?xml version="1.0" encoding="utf-8"?>
<!-- Generator: Adobe Illustrator 22.0.0, SVG Export Plug-In . SVG Version: 6.00 Build 0)  -->
<svg version="1.1" id="图层_1" xmlns="http://www.w3.org/2000/svg" xmlns:xlink="http://www.w3.org/1999/xlink" x="0px" y="0px"
	 viewBox="0 0 36 36" style="enable-background:new 0 0 36 36;" xml:space="preserve">
<style type="text/css">
	.st0{fill:#C28E90;}
	.st1{fill:none;stroke:#C28E90;stroke-width:3;stroke-miterlimit:10;}
</style>
<g>
	<path class="st0" d="M31,3c1.1,0,2,0.9,2,2v26c0,1.1-0.9,2-2,2H5c-1.1,0-2-0.9-2-2V5c0-1.1,0.9-2,2-2H31 M31,0H5C2.2,0,0,2.2,0,5
		v26c0,2.8,2.2,5,5,5h26c2.8,0,5-2.2,5-5V5C36,2.2,33.8,0,31,0L31,0z"/>
</g>
<g>
	<path class="st0" d="M9.5,7C8.1,7,7,8.1,7,9.5S8.1,12,9.5,12S12,10.9,12,9.5S10.9,7,9.5,7L9.5,7z"/>
</g>
<path class="st1" d="M2.5,33.5l15.4-17.2c0.9-1,2.4-1,3.3-0.2l13.3,12.4"/>
</svg>
