<?xml version="1.0" encoding="utf-8"?>
<!-- Generator: Adobe Illustrator 22.0.0, SVG Export Plug-In . SVG Version: 6.00 Build 0)  -->
<svg version="1.1" id="图层_1" xmlns="http://www.w3.org/2000/svg" xmlns:xlink="http://www.w3.org/1999/xlink" x="0px" y="0px"
	 viewBox="0 0 38 38" style="enable-background:new 0 0 38 38;" xml:space="preserve">
<style type="text/css">
	.st0{fill:#C28E90;}
</style>
<g>
	<path class="st0" d="M19,3c8.8,0,16,7.2,16,16c0,2.6-2.5,4-8.5,5c-2,0.3-2.9,1.4-3.3,2.3c-0.9,2,0.2,3.8,1,5.1
		c0.3,0.5,0.8,1.3,0.9,1.7C24.6,33.7,22.3,35,19,35c-8.8,0-16-7.2-16-16S10.2,3,19,3 M19,0C8.5,0,0,8.5,0,19s8.5,19,19,19
		c4.5,0,8.3-2,9-4c1-3-4.3-6.5-1-7c3.9-0.7,11-2,11-8C38,8.5,29.5,0,19,0L19,0z"/>
</g>
<g>
	<path class="st0" d="M8,13c-1.1,0-2,0.9-2,2s0.9,2,2,2s2-0.9,2-2S9.1,13,8,13L8,13z"/>
</g>
<g>
	<path class="st0" d="M14,7c-1.1,0-2,0.9-2,2s0.9,2,2,2s2-0.9,2-2S15.1,7,14,7L14,7z"/>
</g>
<g>
	<path class="st0" d="M24,7c-1.1,0-2,0.9-2,2s0.9,2,2,2s2-0.9,2-2S25.1,7,24,7L24,7z"/>
</g>
<g>
	<path class="st0" d="M30,13c-1.1,0-2,0.9-2,2s0.9,2,2,2s2-0.9,2-2S31.1,13,30,13L30,13z"/>
</g>
</svg>
